<?xml version="1.0" encoding="UTF-8"?>
<svg id="Layer_1" data-name="Layer 1" xmlns="http://www.w3.org/2000/svg" viewBox="0 0 1080 1087.15">
  <defs>
    <style>
      .cls-1 {
        fill: #fff;
      }

      .cls-2 {
        fill: #231f20;
      }
    </style>
  </defs>
  <rect class="cls-2" width="1080" height="1087.15"/>
  <g>
    <path class="cls-1" d="M435.79,877.18c3.46-1.48,7.61-1.1,10.15-5.16,.94-1.5,4.95-1.34,7.57-1.41,.47-.01,1.07,2.6,1.49,4.03,1.03,3.54-2.73,8.02,1.77,10.79,5.26,3.24,10.92,2.28,16.5,.59-3.84-.21-7.67-.49-11.51-.62-2.36-.08-4.24,.43-2.91-3.44,.7-2.04-1.74-4.98-2.23-7.61-.61-3.26-.16-7.29,3.57-7.75,9.74-1.22,17.32-7.18,26.04-10.57,15.53-6.03,31.49-9.99,47.93-12.39,1.92-.28,3.79-.96,7.33-1.89-3.04,10.72-5.9,20.82-8.77,30.91,.2,.15,.4,.29,.6,.44,1-1.91,2.26-3.72,2.94-5.73,2.16-6.37,4.71-12.69,5.99-19.24,2.78-14.24,4.91-28.61,7.22-42.94,.72-4.5,1.17-9.03,1.75-13.55,.49-.07,.99-.15,1.48-.22,.45,1.42,1.37,2.87,1.29,4.27-.7,11.7,.36,23.97-3.02,34.9-2.62,8.47-4.31,17.12-6.83,25.57-.56,1.88-.96,3.8-.2,6.08,.88-2.7,1.76-5.4,2.63-8.11,1.25-3.86,2.28-7.81,3.87-11.53,.47-1.1,2.43-1.99,3.84-2.23,17.9-3,35.77-6.14,53.73-8.7,64.61-9.21,129.64-4.79,194.51-5.38,.84,0,1.68,.24,3.42,.51-3.66,4.04-7.02,7.43-9.93,11.15-.88,1.12-.95,4.52-.7,4.59,7.05,2.04,7.5,8.8,10.08,13.8,7.33,14.22-.68,38.41-17.15,45-14.49,5.8-26.65,3.09-38.98-4.1-2.62-1.53-4.84-3.93-7.62-4.93-1.54-.56-4.39,.39-5.73,1.62-7.06,6.57-13.57,13.72-20.75,20.14-9.74,8.72-19.67,17.28-29.95,25.36-19.71,15.49-39.42,30.99-59.73,45.7-13.16,9.54-27.13,18.07-41.17,26.33-15.41,9.07-30.97,18.04-47.12,25.71-15.06,7.14-30.84,12.87-46.56,18.55-13.53,4.88-27.23,9.51-41.17,13.01-27.27,6.85-55.1,10.04-83.25,8.05-26.9-1.91-52.48-8.72-76.8-20.7-23.75-11.7-41.16-29.3-54.41-51.52-16-26.83-18.57-55.95-14.18-85.83,3.78-25.78,11.94-50.4,22.6-74.34,11.74-26.37,23.1-52.95,33.31-79.92,7.32-19.37,8.89-40.1,6.85-60.58-1.22-12.2-3.86-24.56-12.41-34.75-12.47-14.88-32-13.32-45-6.06-13.6,7.59-24.97,17.55-35.83,28.45-7.83,7.86-16.76,14.64-25.05,22.06-6.63,5.93-12.66,12.56-19.62,18.08-13.3,10.56-26.93,20.72-40.68,30.7-10.41,7.56-22.09,12.72-34.7,15.73-17.88,4.27-33.09-.92-46.51-12.59-10.2-8.87-15.59-20.6-20.17-32.84-.99-2.64-2.4-5.13-3.62-7.7,0-48.57,0-97.14,0-145.71,2.39-9.44,4.38-19.01,7.27-28.3,4.75-15.24,9.94-30.36,15.24-45.43,3.24-9.21,6.68-18.39,10.69-27.3,3.36-7.46,7.56-14.56,11.56-21.73,6.58-11.8,12.87-23.79,20.08-35.21,7.78-12.34,16.31-24.23,24.84-36.1,3.22-4.48,7.57-8.15,10.97-12.52,15.81-20.31,34.82-37.66,53.03-55.73,3.42-3.39,7.17-6.47,10.73-9.72,2.51-2.3,4.31-1.75,6.05,1.03,12.21,19.52,23.22,39.64,33.02,60.46,5.99,12.74,13.22,24.91,19.76,37.4,1.98,3.78,3.39,7.84,5.29,11.66,4.83,9.71,10.04,19.25,14.66,29.06,8.2,17.4,16.03,34.97,24.1,52.42,2.91,6.29,6.19,12.41,9.07,18.71,1.83,4,3.08,8.25,4.85,12.28,11.35,25.92,23.47,51.55,33.9,77.83,5.68,14.32,9.21,29.6,12.49,44.7,3.99,18.35,7.3,36.89,9.8,55.5,2.96,22.05,4.73,44.27,3.12,66.55-.8,11.11-2.51,22.15-3.9,33.96,11.85-6.08,20.37-15.3,30.09-22.98,3.18-2.51,6.94-4.29,10.33-6.55,8.7-5.82,16.86-12.65,26.11-17.43,21.2-10.94,42.4-22.23,64.6-30.88,21.21-8.27,43.67-13.44,65.62-19.85,6.14-1.79,12.42-3.16,18.64-4.73,0,12.75,.02,25.21,0,37.67-.02,6.43-.37,12.86-.09,19.28,.18,4.23-1.87,6.31-5.53,7.25-12.37,3.19-24.84,6-37.13,9.47-11.76,3.32-23.59,6.66-34.94,11.11-16.88,6.61-33.53,13.87-49.95,21.53-7.92,3.7-15.1,8.95-22.63,13.48-5.93,3.57-12.18,6.72-17.75,10.77-12.23,8.9-24.02,18.39-36.2,27.38-6.91,5.1-14.01,10.03-21.44,14.36-4.51,2.63-5.65,6.05-5.82,9.86,7.13-4.7,14.41-9.22,21.36-14.18,3.69-2.63,6.69-6.18,10.23-9.05,6.52-5.29,12.86-10.91,19.9-15.46,12.69-8.22,25.81-15.78,38.78-23.56,7.18-4.31,14.26-8.82,21.68-12.7,11.93-6.25,23.72-13.04,36.27-17.8,15.93-6.05,32.52-10.48,48.93-15.26,9.15-2.66,18.53-4.54,27.77-6.91,2.6-.66,4.63-.46,4.38,2.6-.58,7.34-1.35,14.68-2.4,21.96-.25,1.74-1.93,3.28-2.21,3.74,1.99,11.89-3.05,22.39-3.27,32.13-22.77,7.76-46.78,9.2-68.31,20.45,1.03-1.36,1.97-2.61,2.94-3.89-5.04-2.88-15.61,1.05-15.99,6.5-.43,6.1-4.77,5.73-8.28,7.25-1.13-1.62-2.18-3.12-3.45-4.94-1.92,3.07-.77,8.32-6.45,7.51-5.7,8.34-14.72,.42-22.19,5.54-.67-6.73-1.15-12.28-1.82-17.81-.16-1.35-.96-2.62-1.46-3.93l.07,.1c3.25-.36,5.93-1.13,5.41,4.31-.54,5.77,6.86,11.97,13.47,10.96-9.33-1.16-6.71-9.01-11.19-14.16,6.13-2.64,11.78-5.07,17.3-7.45,5.43,3.61,.76,7.66,1.02,11.84,1.54-2.73,3.08-5.46,5.4-9.57,.19,3.22,.28,4.78,.37,6.34,.53,0,1.07,0,1.6,.01,.1-2.12,.19-4.24,.32-6.98,.58-.35,2.72-1.11,4.11-2.55,3.73-3.87,7.33-4.66,11.16-1.02,3.44,3.27,7.02,3.4,10.16,.91,1.82-1.45,3.12-4.79,2.94-7.16-.29-4.06-3.7-5.71-7.69-6.13-7.13-.75-14.83-3.68-21.25-1.95-11.22,3-24.1,4.34-30.65,16.7-1.97,3.7-6.43,6.05-8.8,9.63-4.02,6.09-7.71,12.59-6.62,20.32,.32,2.28,1.71,4.41,2.61,6.61l-.13-.18c.42,1.85,.84,3.69,1.23,5.4-31.96,22.4-63.65,44.6-96.29,67.48-.84-3.77-1.66-6.42-1.98-9.13-.3-2.58-.06-5.22-.06-9.28q-2.05,12.67,2.43,21.67c32.37-22.46,64.66-44.86,97.35-67.54,7.68,7.09,13.73,17.52,27.61,14.41-2.19-1.24-4.37-2.48-7.68-4.36,.85,2.38,1.22,3.41,1.8,5.02-7.07-3.02-12.96-6.3-15.53-15.19,4.67-2.13,9.74-4.09,14.41-6.73,2.43-1.37,4.16-3.96,6.2-6l-.19,.14ZM38,588.7c8.03-.21,12.85-4.91,12.45-12.14-.4-7.22-3.47-10.39-9.97-10.3-5.62,.08-12.06,7.45-11.67,13.38,.34,5.29,4.3,9.2,9.19,9.07Zm182.73-24.32c-.53-10.4-3.49-12.36-13.08-8.45-.33,.14-.64,.32-.98,.45-6.58,2.48-8.37,7.58-3.2,12.22,3.27,2.93,8.44,4.32,12.97,4.96,.96,.14,2.83-5.96,4.28-9.19Zm257.66,320.88c8.64-2.31,10.01-4.39,8.95-13.58-5.82,.36-11.75,.73-16.81,1.04,2.59,4.13,5.04,8.05,7.85,12.54Zm-26.19,12.08c.21-.43,.42-.86,.63-1.29-3.17-1.17-6.88-1.69-9.37-3.69-2.77-2.23-4.43-5.8-6.58-8.78,1.4,8.68,6.86,13.22,15.32,13.77Z"/>
    <path class="cls-1" d="M615.3,7.15c-2.22,12.65-5.5,24.82-15.32,34.18-2.95,2.81-5.43,6.17-8.65,8.6-12.81,9.64-27.15,14.43-43.39,11.63-10.5-1.81-20.75-4.82-28.73-12.14-12.4-11.37-21.46-24.63-21.31-42.26h117.41Z"/>
    <path class="cls-1" d="M0,341.43c8.41-6.22,18-9.02,28.09-6.44,11.65,2.98,21.65,9.4,23.74,22.05,1.24,7.5,1.07,15.92-1.24,23.06-1.72,5.3-7.18,10.34-12.25,13.47-10.56,6.51-22.07,7.48-33.34,.87-1.79-1.05-3.34-2.47-5.01-3.72,0-16.43,0-32.86,0-49.28Z"/>
    <path class="cls-1" d="M577.55,235.98c-2.35,21.53-4.71,43.06-7.11,64.98-19.77,4.04-39.52,7.91-59.18,12.15-9.45,2.04-18.7,4.99-28.14,7.1-9.82,2.19-19.85,3.52-29.63,5.85-14.66,3.5-29.2,7.53-43.77,11.37-6.8,1.79-13.67,3.39-20.34,5.57-24.98,8.14-50.03,16.13-74.78,24.9-13.37,4.74-26.23,10.9-39.27,16.54-8.24,3.56-16.58,6.97-24.49,11.14-7.59,3.99-14.69,8.89-22.59,13.75-5.59-10.04-11.17-19.73-16.43-29.6-5.1-9.58-9.9-19.32-14.76-29.02-2.7-5.4-5.06-10.97-7.9-16.29-4.95-9.29-9.84-18.62-15.36-27.58-3.01-4.88-.93-7.49,2.7-10.09,10.18-7.26,20.4-14.48,30.61-21.7,12.86-9.11,25.71-18.24,38.62-27.28,1.89-1.33,4.15-2.14,6.17-3.3,3.88-2.22,7.71-4.5,11.56-6.77,7.57-4.47,15.04-9.13,22.74-13.39,14.93-8.26,29.74-16.79,45.07-24.29,19.86-9.72,40.08-18.77,60.32-27.69,17.27-7.61,34.73-14.83,52.24-21.87,20.67-8.31,41.37-16.59,62.3-24.23,14.67-5.35,29.75-9.63,44.66-14.34,19.34-6.11,38.64-12.35,58.07-18.18,13.62-4.08,27.4-7.68,41.17-11.26,14.13-3.67,28.3-7.22,42.52-10.52,17.68-4.1,35.37-8.2,53.17-11.74,21.87-4.36,43.85-8.16,65.79-12.15,1.95-.35,3.96-.57,5.93-.49,3.93,.15,6.06-.94,5.97-5.42-.03-1.52,1.96-3.51,3.52-4.57,5.2-3.52,13.02-2.19,16.41-9.65,1.32-2.9,11.93-.8,13.36,3.04,3.74,10.03,11.52,10.32,20.37,10.28,12.29-.06,24.59,.94,36.2,5.43,13.08,5.06,19.54,15.11,15.66,29.24-1.88,6.84-6.48,12.9-9.02,19.63-4.77,12.64-15.44,20.88-23.32,31.15-5.99,7.8-14.06,14.07-21.34,20.88-9.54,8.92-19.17,17.75-28.84,26.54-4.63,4.21-9.55,8.11-14.11,12.39-7.34,6.88-14.49,13.95-21.73,20.93-6.94,6.69-13.98,13.29-20.84,20.07-12.21,12.08-23.25,25.08-31.81,39.99-1.33,2.32-2.86,4.53-4.15,6.55-1.87-.58-3.52-1.65-5-1.46-13.73,1.8-27.44,3.78-41.15,5.77-11.02,1.6-22.04,3.2-33.04,4.94-13.49,2.13-26.95,4.39-41.23,6.73,1-2.61,1.65-4.93,2.75-7.03,6.85-13.06,14.16-25.91,20.57-39.18,2.98-6.18,4.77-13.04,6.26-19.77,5.1-23.05,8.62-46.42,3.76-69.8-1.97-9.48-7.02-18.58-11.94-27.15-6.1-10.61-20.14-7.96-27.72-4.17-18.62,9.3-29.59,25.83-38.9,43.06-4.34,8.03-5.69,17.95-6.93,27.21-1.91,14.23-2.57,28.62-3.77,42.95-.35-2.41-.13-5.12-1.17-7.2-1.75-3.47-3.64-7.83-6.74-9.39-2.47-1.24-7.17,.46-10.25,2.04-5.37,2.77-5.53,8.2-5.38,13.5,.18,6.47,2.65,10.03,7.88,11.13,6.47,1.36,10.7-.74,13.63-6.68,.61-1.24,1.43-2.38,2.15-3.57Zm107.76-78.32c8.92,.11,15.31-6.88,15.48-16.93,.15-9.28-6.02-16.26-14.42-16.28-8.27-.03-15.78,8.17-15.78,17.22,0,8.54,6.77,15.89,14.72,15.99Zm71.84,28.44c-.13,5.63,6.19,11.82,12.2,11.97,4.35,.11,9.35-5.62,9.4-10.79,.07-7.13-4.23-12.05-10.69-12.22-6.87-.17-10.74,3.75-10.9,11.03Zm-274.92,6.49c.18,.51,.36,1.02,.54,1.53,1.74-.1,4.59,.39,5.01-.4,1.21-2.24,1.44-4.99,2.05-7.54-.68-.29-1.36-.58-2.04-.88-1.85,2.43-3.71,4.85-5.56,7.28Zm205.63-94.43c-2.6,6.05,1.05,12.45,6.7,12.43-2.15-3.98-4.58-8.51-6.7-12.43Z"/>
    <path class="cls-1" d="M630.74,755.22c10.52-1.44,20.99-3.45,31.56-4.18,17.33-1.2,34.71-1.95,52.08-2.19,32.06-.43,64.12-.59,96.18-.41,20.97,.12,41.93,1.06,64.81,1.69-20.92,25.24-41.84,48.79-63.85,70.29-2.67-.7-5.15-1.92-7.62-1.92-45.47,.1-90.95-.07-136.41,.78-17.98,.34-35.95,2.67-53.85,4.77-16.96,1.98-33.8,4.87-50.71,7.27-2.07,.29-4.23,.04-7.16,.04,1.73-14.96,3.4-29.31,5.06-43.61,6.19-.26,15.47-8.82,14.09-19.45,3.67-1.34,7.36-2.69,11.05-4.04l-.15-.59c-2.26,.46-4.52,1.27-6.78,1.3-2.91,.04-5.83-.6-8.75-.84-2.56-.21-5.13-.28-9.07-.48-.14-3.95-.48-8.39-.41-12.83,.23-14.1,.76-28.19,.86-42.28,.03-3.53,1.04-5.02,4.65-5.54,25.82-3.69,51.54-8.14,77.44-11.17,23.46-2.75,47.09-4.04,70.65-5.9,16.17-1.28,32.34-2.66,48.54-3.6,11.91-.69,23.87-1.08,35.8-1,27.52,.17,55.05,.29,82.54,1.29,13.58,.49,27.09,2.89,41.5,4.52-5.74,7.79-10.82,14.81-16.04,21.74-8.59,11.42-17.32,22.73-25.86,34.18-2.56,3.43-5.4,4.95-9.98,4.87-39.25-.75-78.5-1.39-117.76-1.7-19.92-.15-39.84,.2-59.75,.78-19.8,.57-39.54,2.02-58.92,6.47-1.29,.3-2.44,1.22-3.67,1.85-1.05-.08-2.12-.36-3.11-.18-9.17,1.72-18.33,3.52-27.49,5.32-3.01,.59-6.01,1.28-9.01,1.92,.12,.48,.23,.96,.35,1.45,8.77-1.68,17.57-3.25,26.31-5.09,4.34-.92,8.58-2.34,12.86-3.53Z"/>
    <path class="cls-1" d="M568.98,310.22c3.91,10.07-2.61,15.04-9.37,20.27-7.76,6-15.03,12.61-22.71,18.72-2.19,1.74-5.21,2.42-7.57,4-14.32,9.53-28.48,19.29-42.86,28.74-5.22,3.43-11.16,5.83-16.28,9.38-8.06,5.6-15.9,11.55-23.47,17.78-5.36,4.41-10.04,9.61-15.18,14.3-11.93,10.88-20.37,24.32-28.26,38.04-3.88,6.74-6.07,14.4-9.35,21.5-.88,1.91-2.65,3.9-4.54,4.81-18.42,8.89-36.99,17.47-55.43,26.32-13.59,6.53-27.09,13.25-40.52,20.08-3.98,2.02-6.56,2.21-8.32-2.62-2.53-6.95-5.23-13.86-8.34-20.57-3.06-6.6-6.73-12.93-10.13-19.38-1.08-2.04-2.23-4.05-3.21-6.13-4.77-10.12-9.47-20.26-14.23-30.38-3.77-8.03-7.45-16.1-11.4-24.05-6.47-13.03-7.02-13.8,5.91-21.1,15.05-8.49,31.01-15.4,46.62-22.92,5.5-2.65,10.95-5.52,16.69-7.54,14.37-5.06,28.92-9.65,43.37-14.5,8.71-2.92,17.28-6.27,26.06-8.93,14.98-4.54,30.02-8.91,45.15-12.95,13.7-3.66,27.52-6.89,41.33-10.1,12.09-2.81,24.25-5.32,36.38-7.99,22.6-4.96,45.19-9.95,67.79-14.89,.66-.14,1.4,.09,1.86,.13Z"/>
    <path class="cls-1" d="M638.13,443.26c4.79-5.34,4.64-8.74-.69-15.91-5.68,1.29-11.36,2.58-17.52,3.98-1.26-1.91-2.77-4.2-4.9-7.42,8.12-1.34,15.34-2.49,22.55-3.72,14.17-2.43,28.28-5.27,42.52-7.26,18.34-2.56,36.76-4.65,55.19-6.59,21.85-2.3,43.71-4.65,65.62-6.17,15.32-1.06,30.74-1.01,46.12-1.02,35.86-.02,71.72-.07,107.56,.52,10.93,.18,21.9,1.98,32.68,3.97,3.67,.68,8,3.44,9.99,6.53,8.62,13.37,13.97,28.04,15.37,43.96,.47,5.41,.89,10.83,1.43,17.46-6.57-1.21-11.93-2.54-17.37-3.14-17.89-1.98-35.83-3.49-53.7-5.55-30.08-3.46-60.28-3.56-90.45-2.63-33.6,1.03-67.2,2.51-100.74,4.63-24.13,1.53-48.29,3.58-72.21,6.97-20.95,2.97-41.57,8.14-62.35,12.31-5.35,1.07-10.12,.89-15.56-1.68-9.47-4.47-19.77-7.23-30.96-11.14,.58-11.04,1.24-23.72,1.95-37.39,6.84-1.36,13.84-2.75,20.83-4.15,2.61-.52,5.4-.68,7.78-1.72,6.11-2.67,10.82,.19,15.35,2.74-.96,2.24-1.74,4.15-2.58,6.04-.85,1.91-1.76,3.8-2.98,6.43,1.95,.27,3.47,.76,4.93,.62,5.24-.51,8.67,1.91,11.34,6.06,2.96,4.59,9.4,5.27,12.37,.9,1.1-1.61-.02-4.69-.13-7.09-.47-.17-.94-.35-1.42-.52Z"/>
    <path class="cls-1" d="M749.49,280.86c-4.75,18.39-7.85,36.26,2.92,53.71-.63,.26-1.19,.6-1.8,.73-.68,.14-1.41,.1-2.29,.15,.33,.27,.5,.45,.71,.56,1.95,1.02,4.41,1.59,5.77,3.12,9.57,10.78,20.67,19.42,34.43,24.29,16.02,5.67,32.69,5.98,49.21,3.64,25.66-3.64,51.3-6,77.19-3.6,15.87,1.47,31.7,4.06,45.55,12.19,8.35,4.9,15.41,11.94,23.06,18.02-.31,.53-.63,1.07-.94,1.6-1.96-.36-3.92-.81-5.9-1.08-9.27-1.26-18.54-3.4-27.83-3.53-36.39-.52-72.81-1.11-109.19-.28-28.67,.65-57.35,2.74-85.92,5.31-26.56,2.39-53.08,5.59-79.43,9.66-23.4,3.62-46.54,8.9-69.79,13.47-9.35,1.84-18.68,3.74-28.04,5.54-.98,.19-2.07-.15-3.78-.3,.58-8.05,1.01-15.82,1.74-23.56,.87-9.2,1.87-18.4,3.11-27.56,.33-2.46,2.13-4.71,2.53-7.18,.41-2.46-.59-5.17-.06-7.57,.59-2.7,1.73-5.56,3.49-7.66,3.06-3.67,6.8-6.78,10.2-10.18,4.66-4.65,9.6-9.08,13.82-14.09,6.61-7.84,12.67-16.13,19.1-24.12,1.03-1.28,2.71-2.58,4.27-2.85,21.46-3.74,42.92-7.48,64.44-10.85,17.59-2.76,35.26-5.03,53.42-7.59Z"/>
    <path class="cls-1" d="M762.68,537.02c-20.69,1.46-41.39,2.82-62.07,4.4-14.02,1.07-28.02,2.37-42.01,3.74-3.72,.36-5.97-.28-7.25-4.3-3.88-12.18-10.3-23.1-18.34-33.07-1.97-2.45-4.54-4.43-6.86-6.6-2.33-2.18-4.69-4.33-8.21-7.59,7.6-2.19,13.92-4.56,20.45-5.77,15.37-2.85,30.83-5.26,46.28-7.65,11.72-1.81,23.45-3.74,35.24-4.85,17.19-1.62,34.44-2.85,51.69-3.71,24.54-1.22,49.11-2.17,73.67-2.85,32.75-.89,65.49-1.02,98.12,2.64,11.29,1.27,22.65,1.97,33.87,3.63,10.8,1.6,21.48,4,32.15,6.31,1.17,.25,2.89,2.33,2.77,3.39-2.39,20.9-6.9,41.3-14.9,60.89-1.85,4.53-3.46,6.41-9.43,4.77-18.19-4.99-36.54-9.82-55.14-12.77-17.72-2.81-35.82-4.04-53.78-4.42-25.7-.54-51.43,.14-77.14,.68-11.73,.25-23.44,1.38-35.15,2.19-1.39,.1-2.75,.68-4.12,1.04,0,0,.14-.11,.14-.11Zm70.92-65.36c-8.64,.07-11.95,2.34-11.87,8.16,.07,4.82,5.21,9.92,9.92,9.83,6.33-.12,11.88-4.96,11.95-10.43,.07-5.06-3.31-7.62-10-7.56Z"/>
    <path class="cls-1" d="M762.54,537.13c3.5-.04,7.01-.06,10.51-.13,36.37-.67,72.73-1.97,109.09-1.76,17.67,.1,35.52,1.94,52.93,4.99,18.71,3.28,36.98,8.94,55.46,13.49,2.95,.73,3.23,2.46,2.35,4.81-1.76,4.67-3.32,9.43-5.42,13.94-5.42,11.66-11.05,23.23-16.7,34.79-1.39,2.84-3.18,5.48-4.73,8.11-17.86-2.94-35.41-7.21-53.18-8.43-25.72-1.77-51.59-1.52-77.4-1.76-19.89-.18-39.81-.23-59.69,.46-22.89,.8-45.8,1.94-68.61,3.97-18.96,1.68-37.78,4.87-56.67,7.37-1.04,.14-2.11,.02-3.81,.02,9.11-22.37,13.51-44.81,7.11-69.07,7.48-.86,14.55-1.82,21.65-2.46,20.64-1.86,41.29-3.64,61.94-5.36,6.66-.55,13.35-.7,20.01-1.27,1.8-.15,3.52-1.18,5.3-1.82,.02-.01-.13,.1-.13,.1Z"/>
    <path class="cls-1" d="M963.91,620.64c-6.73,10.92-13.32,21.61-19.92,32.3-3.92,6.35-7.89,12.68-11.78,19.06-2.6,4.26-5.87,6.86-11.41,6.34-17.8-1.66-35.61-4.09-53.44-4.33-37.8-.5-75.63-.47-113.4,.66-24.87,.75-49.7,3.53-74.49,5.89-26.36,2.5-52.69,5.38-78.98,8.48-12.28,1.45-24.45,3.8-37.39,5.85,0-4.89-.07-9.06,.07-13.23,.02-.62,.93-1.5,1.62-1.77,4.36-1.71,8.65-3.85,13.19-4.76,9.49-1.9,17.01-7.02,24.37-12.74,4.34-3.38,9.76-5.6,13.51-9.46,9.32-9.59,17.85-19.92,26.96-29.71,1.89-2.03,4.77-3.95,7.43-4.36,37.27-5.62,74.51-10.92,112.47-10.27,38.34,.65,76.73,.02,115.08-.73,28.6-.56,56.33,3.84,83.66,11.62,.48,.14,.92,.42,2.45,1.16Zm-175.76,35.04c2.07-3.08,4.3-4.96,4.21-6.7-.08-1.44-3.01-3.91-4.51-3.79-1.92,.15-3.67,2.42-5.5,3.78,1.59,1.84,3.17,3.67,5.8,6.71Z"/>
    <path class="cls-1" d="M341.5,794.52c.49-10.07,1.05-20.13,1.47-30.2,1.09-26.22-1.32-52.24-5.46-78.09-2.44-15.24-5.43-30.43-8.88-45.48-2.05-8.96-5.38-17.64-8.32-26.38-1.34-3.98-.89-6.08,3.53-8.26,8.78-4.33,16.89-9.96,25.44-14.78,11.04-6.22,22.23-12.16,34.32-18.75,3.26,20.7,11.11,38.53,21.05,56.12-2.53,1.99-5.43,4.27-8.33,6.55,.14,.25,.29,.5,.43,.75,3.13-1.89,6.25-3.78,9.28-5.61,7.55,7.89,14.75,16.11,22.72,23.52,5.72,5.32,13.05,8.98,18.59,14.44,5.62,5.53,13.17,5.71,19.65,8.14,12.19,4.58,25.18,8.39,38.1,9.46,14.55,1.21,29.39-.97,44.11-1.66,1.22-.06,2.45,0,4,0,0,3.47,.47,6.9-.21,10.08-.32,1.5-2.65,3.18-4.39,3.7-13.99,4.18-28.19,7.68-42.06,12.19-18.84,6.13-37.88,11.95-56.01,19.78-18.54,8-37.11,16.37-53.65,28.27-6.81,4.9-13.81,9.55-20.71,14.33-11.01,7.63-22,15.28-33,22.92-.55-.35-1.1-.69-1.66-1.04Zm20.91-65.15c-6.36-.08-12.8,5.47-12.87,11.09-.06,4.87,4.7,9.12,10.44,9.31,5.71,.19,11.15-4.96,11.27-10.64,.09-4.29-4.82-9.71-8.83-9.76Z"/>
    <path class="cls-1" d="M470.91,532.13c-9.75,19.42-11.47,39.26-7.99,59.65,.52,3.07-.23,4.17-2.66,5.29-6.81,3.12-13.57,6.36-20.14,10.14,8.09-2.77,16.17-5.53,23.36-7.99,9.49,18.4,18.77,36.41,28.21,54.73,.96-.58,2.11-1.28,3.22-1.95-.12-.51-.09-.91-.28-1.09-1.47-1.46-3.57-2.6-4.41-4.34-6.97-14.46-13.84-28.97-20.46-43.59-2.58-5.7-1.37-7.46,4.84-9.31,2.13-.64,4.19-1.5,5.99-3.21-3.77,.76-7.54,1.53-11.75,2.38-3.17-7.3-1.99-14.56-1.44-21.71,1.08-14.05,5.27-27.22,12.9-39.11,1.96-3.06,5.44-5.77,8.84-7.22,9.9-4.23,19.92-8.4,30.26-11.37,12.23-3.51,24.81-5.87,37.32-8.31,1.18-.23,4.26,2.45,4.25,3.76-.12,18.2-.57,36.39-1.15,54.58-.03,1.01-1.67,2.55-2.82,2.85-8.37,2.13-16.88,3.76-25.2,6.03-9.17,2.5-18.21,5.49-27.27,8.36-1.43,.45-2.69,1.42-3.81,2.57,19.4-5.33,38.8-10.65,59.08-16.22-.9,12.82-1.68,24.5-2.56,36.17-.52,6.82-1.97,13.66-1.62,20.43,.37,7.28-1.25,12.51-8.61,15.39,2.5-.52,4.99-1.04,7.95-1.65,0,5.47,.14,10.36-.04,15.25-.2,5.31,1.13,11.96-1.59,15.51-2.46,3.21-9.43,3.89-14.5,4.16-13.82,.73-27.71,1.38-41.5,.66-9.22-.49-18.32-3.36-27.46-5.23-.97-.2-1.83-.9-3.27-3.05,5.07-2.04,10.15-4.07,15.22-6.11-.05-.08-.1-.15-.15-.23-6.2,1.7-12.41,3.41-19.42,5.33-5.1-2.96-11.71-5.73-16.97-10.07-14.18-11.7-26.98-24.78-33.93-42.15-4.41-11.02-8.29-22.26-12.14-33.48-.84-2.46-.47-5.3-.82-7.94-.78-5.83,2.48-8.84,7.41-10.96,7.43-3.2,14.73-6.68,22.18-9.83,10.22-4.32,20.52-8.48,30.81-12.63,3.77-1.52,7.63-2.82,12.13-4.46Z"/>
    <path class="cls-1" d="M797.09,1034.1c-.31-29.43,29.84-52.08,53.31-50.79,31.41,1.72,55.24,28.99,51.03,58.61-3.81,26.82-23.69,46.05-53.98,45.21-31-.87-51.78-25.93-50.36-53.02Z"/>
    <path class="cls-1" d="M564.12,436.91c-.73,12.68-1.39,23.99-2,34.6-10.67,1.48-20.69,2.58-30.6,4.32-14.8,2.6-26.51,10.92-36.7,21.23-6.7,6.78-12.24,14.67-18.95,21.44-2.59,2.61-6.93,3.59-10.55,5.15-9.74,4.2-19.54,8.24-29.27,12.47-9.38,4.07-18.7,8.25-28.01,12.47-3.26,1.48-6.39,3.23-10.42,5.29,0-5.42-.08-10.29,.01-15.15,.33-16.73,5.31-32.3,13.33-46.81,1.83-3.31,6.42-5.66,10.25-7.27,14.23-5.96,28.59-11.62,43.05-16.99,9.55-3.55,19.41-6.31,29.05-9.64,8.93-3.09,17.64-6.83,26.65-9.63,8.69-2.7,17.64-4.55,26.47-6.82,5.55-1.42,11.08-2.91,17.67-4.65Z"/>
    <path class="cls-1" d="M580.46,299.17c1.08-9.47,2.08-18.22,3.09-26.98,1.58-13.72,3.38-27.43,4.69-41.18,1.86-19.58,6.5-38.12,19.25-53.85,7.07-8.72,15.85-14.69,27.38-16.29,8.16-1.13,12.84,3.19,16.45,9.49,4.09,7.15,4.52,14.96,3.89,22.84-1.82,23.06-10.71,43.56-23.94,62.37-7.06,10.04-14.43,19.86-21.64,29.8-4.51,6.22-10.53,10.05-18.16,11.47-3.46,.64-6.88,1.44-11.02,2.32Z"/>
    <path class="cls-1" d="M417.21,473.77c5.67-6.77,11.24-13.63,17.06-20.28,2.47-2.81,5.64-5.01,8.22-7.74,12.02-12.71,26.29-22.69,41.27-31.5,12.35-7.27,25.8-12.72,38.29-19.78,12-6.79,23.35-14.69,35.1-21.92,3.38-2.08,7.17-3.53,11.74-5.73-1.41,18.75-3,36.05-3.84,53.38-.28,5.7-1.93,7.81-7.74,9.46-22.32,6.33-44.48,13.23-66.47,20.61-22.51,7.55-44.73,15.91-67.09,23.88-1.63,.58-3.37,.87-5.07,1.29-.49-.55-.97-1.11-1.46-1.66Z"/>
    <path class="cls-1" d="M316.49,599.93c-1.11-2.35-2.42-5-3.64-7.69-6.26-13.81-12.43-27.65-18.8-41.41-1.89-4.09-1.51-6.72,2.98-8.84,15.9-7.51,31.69-15.24,47.47-22.99,10.28-5.05,20.39-10.44,30.73-15.37,4.29-2.04,8.97-3.26,14.37-5.17-1.81,6.7-4.21,12.54-4.86,18.56-1.51,14.13-2.09,28.36-3.31,42.53-.16,1.88-1.44,4.36-2.99,5.31-10.66,6.56-21.44,12.92-32.34,19.08-9.59,5.42-19.39,10.49-29.61,15.99Z"/>
    <path class="cls-1" d="M568.03,611.51c0-13.51,.06-27.02-.04-40.53-.02-3.14,.79-4.66,4.3-5.38,13.37-2.76,26.66-5.94,39.97-8.99,3.12-.71,4.99,.03,6.03,3.38,6.01,19.37,6.82,38.32-3.37,56.81-2.37,4.3-5.34,6.89-10.2,7.64-10.83,1.66-21.65,3.35-32.45,5.22-4.19,.73-5.61-.78-5.43-4.78,.2-4.45,.05-8.91,.05-13.36,.38,0,.76,0,1.15,0Z"/>
    <path class="cls-1" d="M1080,941.32c.11,14.14-10.61,24.89-24.92,25-14.02,.1-25.1-10.25-24.65-23.95,.41-12.56,8.86-24.75,23.74-24.72,14.49,.03,25.73,10.28,25.83,23.68Z"/>
    <path class="cls-1" d="M11.43,85.62c.1-10.74,9.6-20.16,20.22-20.04,10.87,.12,20.87,9.72,20.69,19.92-.18,10.39-8.9,19.65-20.55,19.68-11.71,.03-20.46-8.35-20.36-19.56Z"/>
    <path class="cls-1" d="M594.13,558.72c-8.18,1.58-16.11,3.11-24.61,4.76v-56.84c5.24,2.42,10.12,4.86,15.16,6.9,2.11,.85,4.59,1.22,6.88,1.14,3.25-.12,5.65-.11,4.22,4.17-1.18,3.52-2.03,7.16-3.36,10.63-3.76,9.84-3.52,19.42,1.71,29.24Z"/>
    <path class="cls-1" d="M147.47,820.17c.52,7.08-6.6,15.94-15.54,16.26-6.42,.23-16.95-8.3-16.27-17,.57-7.19,8.72-15.9,15.71-15.59,10.61,.46,16.67,8.76,16.09,16.33Z"/>
    <path class="cls-1" d="M608.43,626.28c-11.76,15.41-23.31,29.51-42.37,36.85,0-4.97-.09-10.09,.03-15.2,.07-2.83,.94-5.71,.64-8.48-.45-4.18,1.77-6.13,5.23-6.78,11.63-2.19,23.32-4.12,36.47-6.4Z"/>
    <path class="cls-1" d="M41.86,869.73c-.07,9.96-4.53,12.93-13.11,13.34-9.41,.45-13.99-4.27-14.04-13.03-.04-7.62,6.88-14.62,14.37-14.54,7.3,.08,12.81,6.22,12.78,14.22Z"/>
    <path class="cls-1" d="M416.76,117.01c6.03,.09,10.03,4.46,9.93,10.86-.08,5.04-4.55,9.36-9.73,9.4-5.61,.05-10.3-5.07-10.09-11,.18-5.04,4.78-9.34,9.88-9.26Z"/>
    <path class="cls-1" d="M625.59,555.99c1.32-3.41,2.15-5.56,2.99-7.71,2.02-5.16,5.59-6.98,10.06-5.13,2.91,1.21,4.28,6.87,3.56,10.76-.44,2.4,.72,5.09,1.21,7.65,.25,1.35,.59,2.68,.89,4.02-1.5,.08-3.39,.78-4.42,.14-4.89-3.04-9.54-6.44-14.29-9.72Z"/>
    <path class="cls-1" d="M90.53,1033.92c-6.04,0-10.26-3.82-10.25-9.28,.01-5.19,4.14-8.71,10.17-8.65,4.38,.04,8.96,4.78,8.86,9.16-.12,5.26-3.64,8.77-8.78,8.77Z"/>
    <path class="cls-1" d="M614.63,509.43c4.74-.92,8.58,3.05,9.44,7.48,.64,3.3-3.11,7.38-7.55,8.12-2.24,.37-5.09,1.02-6.76,.05-2.62-1.52-6.02-4.14-6.31-6.62-.57-4.8,5.39-8.97,11.18-9.03Z"/>
    <path class="cls-1" d="M223.68,44.45c.11,4.98-4.24,9.28-9.3,9.2-4.93-.08-9.06-4.06-9.14-8.82-.07-4.59,4.2-9.09,8.77-9.24,4.63-.15,9.58,4.38,9.68,8.85Z"/>
    <path class="cls-1" d="M1018.99,299.18c5.39,.05,9.79,3.7,9.78,8.12,0,4.36-5.11,8.99-9.76,8.85-5.18-.15-9.72-4.4-9.49-8.89,.26-5.26,3.63-8.14,9.47-8.09Z"/>
    <path class="cls-1" d="M755.9,1019.24c-5.13,.31-7.54-1.85-7.89-7.07-.44-6.59,1.61-9.37,7.11-9.65,6.6-.34,9.33,1.68,9.61,7.12,.31,6.01-2.65,9.23-8.83,9.61Z"/>
    <path class="cls-1" d="M602.18,165.3c2.66-6.23,4.72-12.82,8.18-18.59,2.87-4.79,8.61-5.45,14.66-3.34-7.08,7.56-14.18,15.12-21.27,22.69-.52-.25-1.04-.51-1.57-.76Z"/>
    <path class="cls-1" d="M176.49,1033.23c-4.26-.13-7.48-3.76-7.36-8.29,.12-4.17,3.67-7.92,7.35-7.76,4.6,.19,7.94,3.92,7.73,8.65-.17,3.94-3.91,7.52-7.72,7.4Z"/>
    <path class="cls-1" d="M59.19,135.75c0,4.11-3.65,7.74-7.89,7.85-4.25,.11-7.3-3.05-7.23-7.5,.07-4.72,3.12-7.85,7.6-7.82,4.07,.03,7.53,3.46,7.52,7.47Z"/>
    <path class="cls-1" d="M968.69,815.39c-.95-1.1-3.65-2.92-4.29-5.29-.9-3.34,4.2-8.26,7.64-8.33,4.18-.08,8.14,3.74,7.97,7.68-.13,3.06-4.87,6.07-11.32,5.93Z"/>
    <path class="cls-1" d="M700.12,958.01c-.12,4.23-3.11,7.35-6.98,7.12-4.1-.23-6.93-2.19-7.15-6.43-.2-3.92,3.67-7.6,7.47-7.58,3.86,.02,6.77,3.03,6.66,6.88Z"/>
    <path class="cls-1" d="M1031.99,718.05c-2.19,2.11-4.04,5.18-6.66,6.08-3.35,1.16-8.69-4.85-8.96-9.04-.23-3.56,2.29-4.16,4.9-4.25,5.76-.19,9.56,2.36,10.73,7.21Z"/>
    <path class="cls-1" d="M416.9,850.71c-1,2.21-1.93,4.46-3.03,6.63-1,1.96-3.02,3.83-2.99,5.72,.02,1.28,2.79,2.52,4.86,4.21-.19,.56-.62,1.77-1.03,2.95,1.31,.95,2.69,1.96,4.71,3.44-3.6,1.84-6.68,3.43-9.7,4.97-5.73-8.31-3.06-17.8,7.29-27.78-.02-.03-.09-.13-.09-.13Z"/>
    <path class="cls-1" d="M803.97,980.6c-2,2.97-3.07,6.44-5.02,7.03-3.29,.99-8.2-4.1-7.88-7.08,.43-4.02,4.81-8.92,7.43-7.55,2.34,1.23,3.49,4.68,5.48,7.6Z"/>
    <path class="cls-1" d="M1039.31,32.94c-4.03,2.37-7.15-.17-7.46-4.18-.24-3.04,1.12-7.46,3.4-9.19,5.29-4.01,5.95,3.58,9.45,4.37-1.92,3.22-3.65,6.11-5.38,9Z"/>
    <path class="cls-1" d="M406.63,881.46c.6-.79,1.71-2.29,1.74-2.26,7.48,5.12,13.31-1.33,19.83-2.7,2.26-.48,4.49-1.12,6.77-1.53,.13-.02,.54,1.44,.82,2.21,0,0,.19-.14,.19-.14-6.85,2.22-13.84,4.1-20.5,6.78-4.12,1.66-6.96,1.7-8.98-2.53,0,0,.13,.18,.13,.18Z"/>
    <path d="M406.5,881.28c2.03,4.23,4.86,4.19,8.98,2.53,6.66-2.68,13.65-4.56,20.5-6.78-2.05,2.04-3.77,4.62-6.2,6-4.67,2.64-9.74,4.6-14.41,6.73,2.57,8.89,8.46,12.17,15.53,15.19-.58-1.62-.95-2.64-1.8-5.02,3.31,1.88,5.5,3.12,7.68,4.36-13.87,3.12-19.93-7.31-27.61-14.41-32.7,22.68-64.98,45.08-97.35,67.54q-4.48-9-2.43-21.67c0,4.06-.23,6.7,.06,9.28,.31,2.71,1.13,5.36,1.98,9.13,32.64-22.87,64.33-45.08,96.29-67.48-.39-1.71-.81-3.55-1.23-5.4Z"/>
    <path d="M38,588.7c-4.89,.13-8.85-3.78-9.19-9.07-.38-5.92,6.05-13.3,11.67-13.38,6.51-.09,9.57,3.08,9.97,10.3,.4,7.23-4.42,11.93-12.45,12.14Z"/>
    <path d="M220.73,564.39c-1.45,3.23-3.33,9.32-4.28,9.19-4.53-.65-9.7-2.03-12.97-4.96-5.18-4.64-3.38-9.75,3.2-12.22,.33-.13,.65-.31,.98-.45,9.59-3.92,12.55-1.95,13.08,8.45Z"/>
    <path d="M478.39,885.27c-2.81-4.49-5.27-8.41-7.85-12.54,5.06-.31,10.99-.68,16.81-1.04,1.06,9.2-.31,11.28-8.95,13.58Z"/>
    <path d="M452.2,897.35c-8.46-.54-13.92-5.09-15.32-13.77,2.15,2.99,3.81,6.56,6.58,8.78,2.49,2,6.2,2.52,9.37,3.69-.21,.43-.42,.86-.63,1.29Z"/>
    <path d="M685.31,157.66c-7.95-.1-14.71-7.45-14.72-15.99,0-9.05,7.5-17.25,15.78-17.22,8.4,.03,14.58,7,14.42,16.28-.17,10.05-6.56,17.04-15.48,16.93Z"/>
    <path d="M577.55,235.98c-.72,1.19-1.54,2.33-2.15,3.57-2.93,5.94-7.16,8.04-13.63,6.68-5.23-1.1-7.7-4.66-7.88-11.13-.15-5.3,.01-10.74,5.38-13.5,3.08-1.59,7.78-3.29,10.25-2.04,3.09,1.55,4.99,5.91,6.74,9.39,1.05,2.08,.82,4.79,1.17,7.2,0-.01,.12-.16,.12-.16Z"/>
    <path d="M757.15,186.09c.17-7.29,4.04-11.2,10.9-11.03,6.46,.16,10.76,5.08,10.69,12.22-.05,5.16-5.05,10.9-9.4,10.79-6.01-.15-12.32-6.34-12.2-11.97Z"/>
    <path d="M482.23,192.58c1.85-2.43,3.71-4.85,5.56-7.28,.68,.29,1.36,.58,2.04,.88-.61,2.55-.84,5.31-2.05,7.54-.43,.79-3.27,.3-5.01,.4-.18-.51-.36-1.02-.54-1.53Z"/>
    <path d="M687.86,98.15c2.12,3.93,4.55,8.45,6.7,12.43-5.65,.01-9.3-6.38-6.7-12.43Z"/>
    <path d="M630.74,755.22c-4.28,1.19-8.52,2.62-12.86,3.53-8.74,1.84-17.54,3.41-26.31,5.09-.12-.48-.23-.96-.35-1.45,3-.64,6-1.32,9.01-1.92,9.16-1.8,18.32-3.6,27.49-5.32,.99-.19,2.07,.1,3.11,.18,0,0-.1-.11-.1-.11Z"/>
    <path d="M833.6,471.67c6.69-.05,10.07,2.51,10,7.56-.08,5.47-5.62,10.31-11.95,10.43-4.7,.09-9.85-5.01-9.92-9.83-.08-5.82,3.23-8.09,11.87-8.16Z"/>
    <path d="M788.15,655.68c-2.63-3.04-4.21-4.88-5.8-6.71,1.82-1.36,3.58-3.64,5.5-3.78,1.5-.11,4.43,2.35,4.51,3.79,.1,1.75-2.13,3.62-4.21,6.7Z"/>
    <path d="M362.41,729.37c4.02,.05,8.92,5.47,8.83,9.76-.11,5.68-5.56,10.83-11.27,10.64-5.73-.19-10.5-4.44-10.44-9.31,.07-5.62,6.51-11.17,12.87-11.09Z"/>
  </g>
</svg>